<?xml version="1.0" encoding="utf-8"?>
<svg width="240" height="170" fill="none" style="" viewBox="91 55 170.633 121.139" preserveAspectRatio="xMinYMax" xmlns="http://www.w3.org/2000/svg">
  <defs>
    <linearGradient id="paint0_linear" x1="-0.45720744132995605" y1="0.5089973211288452" x2="0.36486461758613586" y2="1.5501283407211304">
      <stop stop-color="#F3F3F4"/>
      <stop offset="1" stop-color="#DEB233"/>
    </linearGradient>
    <linearGradient id="paint1_linear" x1="-0.13228701055049896" y1="0.5426356792449951" x2="0.4506727159023285" y2="1.33074951171875">
      <stop stop-color="#fff"/>
      <stop offset="1" stop-color="#573308"/>
    </linearGradient>
  </defs>
  <g class="currentLayer" style="" transform="matrix(0.447457, 0, 0, 0.495024, 50.48925, 51.092468)">
    <title>Layer 1</title>
    <path d="M91.55368995666504,23.454361963272092 a14,14 0 0 1 14,-14.1 H456.05368995666504 a14,14 0 0 1 14,14 v212.3 a14,14 0 0 1 -14,14 H105.75368995666503 c-7.3,-0.2 -14,-6.4 -14,-14 l-0.2,-212.2 z" fill="#CC282C" id="svg_4" class="" opacity="1" filter=""/>
    <path d="M469.85368989706035,171.1543619632721 H91.4536898970604 v53.3 l-0.2,11.2 s-0.5,5.8 5.5,11.1 c0,0 4.4,3.8 12.3,3.3 h346.6 s11.7,0.2 14.3,-9.7 c0,0 0.8,-1.6 0.7000000000000006,-6.3 v-62.7 h-0.8 v-0.1 zM174.6536898970604,44.75436196327209 h3 L176.0536898970604,55.154361963272095 l-2.7,-2.3 l1.4,-8 z" fill="#fff" id="svg_5" class="" opacity="1" filter=""/>
    <path d="M174.65368995666503,39.154361963272095 h3 L176.05368995666504,49.3543619632721 l-2.7,-2.4 l1.4,-7.8 zM132.75368995666503,57.0543619632721 l-1.3,-18 h3.5 l0.3000000000000003,8.1 c0,2.2 0.2,4.6 0,6.3 c0.6000000000000006,-1.9 1.6,-4.1 2.4,-6.3 l3.4,-8.2 h3.5 l0.3000000000000003,8.4 v6 c0.6000000000000006,-2 1.4,-4 2.3,-6.2 l3.3,-8.2 h3.3 l-8,18 h-3.4 l-0.2,-8.4 a34,34 0 0 1 0,-5.6 a52,52 0 0 1 -2.2,5.6 l-3.6,8.5 h-3.6 zM153.35368995666505,51.5543619632721 c-0.4,2.4 1.2,3.3 3.4,3.3 c1.6,0 2.7,-0.3000000000000003 3.8,-0.6000000000000006 l0.1,2.2 c-1.2,0.4 -2.8,0.7000000000000006 -4.7,0.7000000000000006 c-4.2,0 -6.3,-2.6 -5.5,-6.5 c0.7000000000000006,-3.7 3.5,-7.1 7.6,-7.1 c4.2,0 5,3.4 4.5,6.3 l-0.3000000000000003,1.4 h-9 v0.3000000000000003 zm6,-2.4 c0.4,-1.2 0,-3.1 -2.1,-3.1 c-2,0 -3.2,1.9 -3.6,3.1 h5.8 z" fill="#fff" id="svg_6" class="" opacity="1" filter=""/>
    <path d="M163.05368995666504,51.75436196327209 c0,-3.8 3.3,-7.4 7,-7.9 c4,-0.6000000000000006 7,2 7,5.8 s-3.3,7.4 -7,7.9 c-4,0.4 -7,-2 -7,-5.8 zm10.7,-1.8 c0,-1.9 -1.6,-3.3 -3.6,-3 c-2,0.4 -3.6,2.2 -3.6,4.1 c0,2 1.5,3.3 3.6,3 c1.9,-0.3000000000000003 3.4,-2 3.6,-4 zM193.05368995666504,43.654361963272095 l-0.6000000000000006,3.3 a3,3 0 0 1 2.6,3.5 a4.5,4.5 0 0 1 -4.2,3.6 c-1.9,0 -3.1,-1.4 -3,-3.3 h-3.1 l-0.2,1.3 a5.6,5.6 0 0 0 5.8,5.5 c3.8,0 7.4,-3.2 8.2,-7 a5.7,5.7 0 0 0 -5.5,-6.9 z" fill="#fff" id="svg_7" class="" opacity="1" filter=""/>
    <path d="M180.05368995666504,57.5543619632721 c-3.8,0 -6.3,-3.2 -5.7,-7 c0.6000000000000006,-3.7 4.3,-6.9 8.2,-6.9 c3.8,0 6.4,3.2 5.6,7 c-0.8,3.7 -4.4,6.9 -8.1,6.9 zm1.7000000000000002,-10.6 c-1.9,0 -3.8,1.6 -4.2,3.7 c-0.4,1.8 0.9,3.6 3,3.6 c1.8,0 3.7,-1.6 4.2,-3.6 c0.3000000000000003,-2 -1,-3.7 -3,-3.7 z" fill="#fff" id="svg_8" class="" opacity="1" filter=""/>
    <path d="M192.75368995666503,43.654361963272095 A8.7,8.7 0 0 0 185.05368995666504,49.154361963272095 l-0.2,1.1 h3.3 a4.3,4.3 0 0 1 4.1,-3.3 c1.9,0 3.3,1.6 3,3.7 c-0.3000000000000003,1.8 -2,3.4 -4,3.6 l-0.6000000000000006,3.3 a8.8,8.8 0 0 0 8,-7 c0.5,-3.7 -2,-6.9 -6,-6.9 zM214.75368995666503,44.154361963272095 h3.3 L215.65368995666506,57.154361963272095 h-3.3 l2.4,-12.9 zM219.45368995666502,44.154361963272095 h1.7000000000000002 s0.5,-5.5 5.2,-6.1 c0,0 0.8,-0.2 2.8,0.3000000000000003 l-0.6000000000000006,2.5 s-3.6,-1.6 -4.2,3.5 h2.8 l-0.5,2.5 h-2.8 l-1.9,10.5 h-3.3 l1.9,-10.5 H219.05368995666504 l0.3000000000000003,-2.7 zM230.75368995666503,41.654361963272095 l3.5,-1 l-0.7000000000000006,3.4 h3 l-0.6000000000000006,2.5 H233.05368995666504 l-1.1,6 s-1,2.8 2.3,2.1 L234.05368995666504,57.154361963272095 s-6.8,2.2 -5.3,-4.3 l1,-6.2 H228.05368995666504 l0.4,-2.5 h2 l0.4,-2.5 zM218.15368995666506,38.95436196327209 s-1.5,-0.8 -2.6,0.7000000000000006 c0,0 -1.4,2.2 1,2.6 c0,0 1.8,0 2.3,-1.7000000000000002 c0,-0.2 0.3000000000000003,-1.1 -0.7000000000000006,-1.6 zM210.35368995666505,44.0543619632721 l-0.5,1.7000000000000002 c-1,-2.4 -3.4,-2 -3.4,-2 c-4,-0.4 -6.3,4.2 -6.3,4.2 c-2.9,6 1,8.3 1,8.3 c4,2 6.7,-1.2 6.7,-1.2 c-1,8 -8.4,4 -8.4,4 l-1,2.5 a10,10 0 0 0 4.3,1.1 c7.6,0 8.5,-8 8.5,-8.3 L213.05368995666504,44.154361963272095 h-2.7 V44.154361963272095 zm-2.4,7.7 c-0.8,3.4 -3.7,3 -3.7,3 c-2.7,-0.4 -2.2,-3.4 -2.2,-3.4 c0.4,-4 3.1,-4.5 3.1,-4.5 c2.8,-0.5 3.1,1.7000000000000002 3.1,1.7000000000000002 c0.5,0.3000000000000003 -0.3000000000000003,3.2 -0.3000000000000003,3.2 z" fill="#fff" id="svg_9" class="" opacity="1" filter=""/>
    <path d="M141.55368995666504,157.1543619632721 v1.3 h-7.9 V157.1543619632721 h3.4 v-10.5 l-3.1,1.8 l-0.8,-1.1 l4.1,-2.6 h1.5 V157.1543619632721 h2.8 zm7,-12.6 c0.9,0 1.6,0.2 2.2,0.5 c0.7000000000000006,0.3000000000000003 1.1,0.8 1.5,1.4 c0.3000000000000003,0.5 0.5,1.2 0.5,2 s-0.2,1.6 -0.6000000000000006,2.4 c-0.4,0.8 -1,1.7000000000000002 -1.9,2.6 c-0.9,1 -2,2.2 -3.7,3.6 h6.5 l-0.2,1.4 h-8.2 V157.1543619632721 a75,75 0 0 0 4,-4 c0.9,-1 1.5,-1.8 1.8,-2.5 a5,5 0 0 0 0.5,-2.2 c0,-0.8 -0.2,-1.4 -0.6000000000000006,-1.8 c-0.5,-0.5 -1,-0.7000000000000006 -1.8,-0.7000000000000006 c-0.7000000000000006,0 -1.2,0.1 -1.7000000000000002,0.4 l-1.3,1 l-1.1,-0.8 c0.5,-0.7000000000000006 1.1,-1.2 1.8,-1.5 c0.6000000000000006,-0.3000000000000003 1.4,-0.5 2.3,-0.5 zm12,0 c0.8,0 1.5,0.2 2.2,0.5 c0.6000000000000006,0.3000000000000003 1,0.7000000000000006 1.4,1.2 c0.4,0.6000000000000006 0.6000000000000006,1.1 0.6000000000000006,1.7000000000000002 a3,3 0 0 1 -0.8,2.1 c-0.5,0.6000000000000006 -1.2,1 -2,1.1 c1,0.1 1.7000000000000002,0.4 2.3,1 c0.6000000000000006,0.6000000000000006 0.9,1.4 0.9,2.4 a4,4 0 0 1 -2.3,3.6 c-0.7000000000000006,0.4 -1.5,0.6000000000000006 -2.5,0.6000000000000006 c-0.8,0 -1.6,-0.2 -2.3,-0.5 c-0.8,-0.3000000000000003 -1.4,-0.8 -1.9,-1.4 l1.2,-0.9 a3.8,3.8 0 0 0 3,1.4 c1,0 1.7000000000000002,-0.3000000000000003 2.2,-0.8 c0.6000000000000006,-0.5 0.8,-1.1 0.8,-2 c0,-1.7000000000000002 -1,-2.6 -2.8,-2.6 h-1.1 l0.2,-1.3 h0.8 c0.7000000000000006,0 1.3,-0.2 1.8,-0.6000000000000006 c0.5,-0.5 0.8,-1 0.8,-1.8 a2,2 0 0 0 -0.8,-1.7000000000000002 c-0.5,-0.4 -1,-0.6000000000000006 -1.8,-0.6000000000000006 c-0.6000000000000006,0 -1.1,0 -1.6,0.3000000000000003 c-0.4,0.2 -0.9,0.5 -1.3,1 l-1,-1.1 c1.2,-1 2.5,-1.6 4,-1.6 zm17,10.6 h-1.7000000000000002 v3.3 H174.05368995666504 V155.1543619632721 h-5.6 v-1.2 l4,-9.4 l1.4,0.6000000000000006 l-3.7,8.7 h4 l0.1,-4 h1.5 v4 h1.7000000000000002 v1.3 zm22.8,-9 H195.05368995666504 v4.3 l1.1,-0.5 l1.3,-0.1 c1.1,0 2,0.4 2.7,1.1 c0.7000000000000006,0.8 1,1.8 1,3.2 c0,0.9 -0.2,1.7000000000000002 -0.6000000000000006,2.4 a4,4 0 0 1 -1.6,1.6 a5.5,5.5 0 0 1 -6.4,-1 l1,-1 a4,4 0 0 0 3,1.2 c0.9,0 1.6,-0.3000000000000003 2.1,-0.9 c0.5,-0.5 0.8,-1.3 0.8,-2.4 c0,-1 -0.3000000000000003,-1.7000000000000002 -0.7000000000000006,-2.2 c-0.5,-0.5 -1,-0.7000000000000006 -1.8,-0.7000000000000006 l-1,0.1 c-0.3000000000000003,0 -0.7000000000000006,0.2 -1.1,0.4 h-1.4 v-6.9 h7.3 l-0.3000000000000003,1.4 zm9,3.4 a4,4 0 0 1 2,0.5 c0.6000000000000006,0.3000000000000003 1,0.8 1.4,1.4 c0.4,0.7000000000000006 0.5,1.5 0.5,2.4 c0,1 -0.2,1.9 -0.5,2.6 a4.1,4.1 0 0 1 -3.8,2.3 c-1.6,0 -2.7,-0.6000000000000006 -3.5,-1.8 c-0.7000000000000006,-1.1 -1,-2.8 -1,-5 c0,-1.4 0.2,-2.8 0.6000000000000006,-3.9 c0.4,-1.1 1,-2 1.7000000000000002,-2.6 c0.8,-0.6000000000000006 1.7000000000000002,-0.9 2.8,-0.9 c1,0 1.9,0.3000000000000003 2.7,0.8 l-0.7000000000000006,1.1 a4,4 0 0 0 -2,-0.5 c-1.1,0 -2,0.4 -2.5,1.4 c-0.6000000000000006,1 -1,2.4 -1,4 c0.5,-0.6000000000000006 1,-1 1.5,-1.3 c0.6000000000000006,-0.3000000000000003 1.2,-0.5 1.9,-0.5 zm-0.4,7.8 c0.9,0 1.5,-0.3000000000000003 2,-0.9 c0.4,-0.6000000000000006 0.6000000000000006,-1.4 0.6000000000000006,-2.5 c0,-2 -0.8,-3 -2.4,-3 a3,3 0 0 0 -1.7000000000000002,0.5 c-0.5,0.4 -1,0.8 -1.3,1.4 c0,1.6 0.2,2.7 0.7000000000000006,3.4 c0.4,0.7000000000000006 1.2,1.1 2.1,1.1 zm8.8,0.9 l5.4,-12 h-6.5 v-1.5 h8.2 v1.3 l-5.5,12.6 l-1.6,-0.4 zm19,-10.2 c0,0.6000000000000006 -0.2,1.2 -0.6000000000000006,1.7000000000000002 c-0.4,0.5 -1,1 -1.8,1.4 c1,0.4 1.7000000000000002,0.9 2.2,1.5 c0.5,0.6000000000000006 0.8,1.3 0.8,2.2 a3.6,3.6 0 0 1 -2.2,3.4 c-0.8,0.3000000000000003 -1.6,0.5 -2.5,0.5 c-1,0 -1.8,-0.2 -2.5,-0.5 c-0.7000000000000006,-0.4 -1.3,-0.9 -1.6,-1.4 c-0.4,-0.6000000000000006 -0.6000000000000006,-1.3 -0.6000000000000006,-2 c0,-1.5 1,-2.7 2.8,-3.6 c-0.8,-0.3000000000000003 -1.3,-0.8 -1.7000000000000002,-1.2 c-0.3000000000000003,-0.5 -0.5,-1.2 -0.5,-2 c0,-0.7000000000000006 0.2,-1.4 0.6000000000000006,-1.9 c0.4,-0.5 1,-1 1.6,-1.2 a5.3,5.3 0 0 1 4,0 c0.5,0.2 1,0.6000000000000006 1.4,1.2 c0.4,0.5 0.6000000000000006,1.1 0.6000000000000006,1.9 zm-6.6,0.1 c0,0.5 0.2,1 0.4,1.2 c0.2,0.3000000000000003 0.5,0.6000000000000006 1,0.7000000000000006 l1.7000000000000002,0.7000000000000006 c0.6000000000000006,-0.4 1.1,-0.8 1.4,-1.2 c0.3000000000000003,-0.4 0.5,-0.8 0.5,-1.4 a2,2 0 0 0 -0.7000000000000006,-1.7000000000000002 c-0.4,-0.4 -1,-0.6000000000000006 -1.8,-0.6000000000000006 s-1.4,0.2 -1.8,0.6000000000000006 c-0.4,0.4 -0.7000000000000006,1 -0.7000000000000006,1.7000000000000002 zm5.4,6.7 c0,-0.6000000000000006 -0.1,-1 -0.4,-1.4 a3,3 0 0 0 -1.2,-0.9 l-2,-0.8 c-1.5,0.7000000000000006 -2.2,1.7000000000000002 -2.2,3 c0,0.9 0.2,1.5 0.7000000000000006,2 c0.5,0.4 1.2,0.6000000000000006 2.2,0.6000000000000006 c0.9,0 1.6,-0.2 2.1,-0.7000000000000006 c0.6000000000000006,-0.5 0.8,-1 0.8,-1.8 zm25,-6.8 c0,0.6000000000000006 -0.2,1.2 -0.6000000000000006,1.7000000000000002 c-0.3000000000000003,0.5 -1,1 -1.7000000000000002,1.4 c1,0.4 1.6,0.9 2.1,1.5 c0.6000000000000006,0.6000000000000006 0.8,1.3 0.8,2.2 a3.6,3.6 0 0 1 -2.2,3.4 c-0.7000000000000006,0.3000000000000003 -1.5,0.5 -2.5,0.5 s-1.8,-0.2 -2.5,-0.5 c-0.7000000000000006,-0.4 -1.2,-0.9 -1.6,-1.4 c-0.3000000000000003,-0.6000000000000006 -0.5,-1.3 -0.5,-2 c0,-1.5 0.9,-2.7 2.7,-3.6 c-0.7000000000000006,-0.3000000000000003 -1.3,-0.8 -1.6,-1.2 c-0.4,-0.5 -0.5,-1.2 -0.5,-2 c0,-0.7000000000000006 0.2,-1.4 0.6000000000000006,-1.9 c0.4,-0.5 0.9,-1 1.5,-1.2 a5.3,5.3 0 0 1 4,0 c0.6000000000000006,0.2 1,0.6000000000000006 1.4,1.2 c0.4,0.5 0.6000000000000006,1.1 0.6000000000000006,1.9 zm-6.5,0.1 c0,0.5 0.1,1 0.3000000000000003,1.2 c0.3000000000000003,0.3000000000000003 0.6000000000000006,0.6000000000000006 1,0.7000000000000006 l1.7000000000000002,0.7000000000000006 c0.7000000000000006,-0.4 1.2,-0.8 1.5,-1.2 c0.3000000000000003,-0.4 0.4,-0.8 0.4,-1.4 a2,2 0 0 0 -0.6000000000000006,-1.7000000000000002 c-0.5,-0.4 -1,-0.6000000000000006 -1.8,-0.6000000000000006 s-1.4,0.2 -1.9,0.6000000000000006 c-0.4,0.4 -0.6000000000000006,1 -0.6000000000000006,1.7000000000000002 zm5.4,6.7 c0,-0.6000000000000006 -0.2,-1 -0.5,-1.4 a3,3 0 0 0 -1.1,-0.9 l-2.1,-0.8 c-1.4,0.7000000000000006 -2.2,1.7000000000000002 -2.2,3 c0,0.9 0.3000000000000003,1.5 0.8,2 c0.5,0.4 1.2,0.6000000000000006 2.1,0.6000000000000006 c1,0 1.7000000000000002,-0.2 2.2,-0.7000000000000006 c0.5,-0.5 0.8,-1 0.8,-1.8 zm6,3.4 l5.4,-12 h-6.5 v-1.5 h8.1 v1.3 l-5.4,12.6 l-1.6,-0.4 zm15.5,-8.7 a4,4 0 0 1 2,0.5 c0.5,0.3000000000000003 1,0.8 1.4,1.4 c0.3000000000000003,0.7000000000000006 0.5,1.5 0.5,2.4 c0,1 -0.2,1.9 -0.6000000000000006,2.6 a4.1,4.1 0 0 1 -3.7,2.3 c-1.6,0 -2.8,-0.6000000000000006 -3.5,-1.8 c-0.7000000000000006,-1.1 -1.1,-2.8 -1.1,-5 c0,-1.4 0.2,-2.8 0.6000000000000006,-3.9 c0.4,-1.1 1,-2 1.7000000000000002,-2.6 c0.8,-0.6000000000000006 1.7000000000000002,-0.9 2.8,-0.9 c1,0 1.9,0.3000000000000003 2.7,0.8 l-0.6000000000000006,1.1 a4,4 0 0 0 -2.1,-0.5 c-1,0 -1.9,0.4 -2.5,1.4 c-0.6000000000000006,1 -0.9,2.4 -1,4 c0.5,-0.6000000000000006 1,-1 1.5,-1.3 c0.6000000000000006,-0.3000000000000003 1.2,-0.5 1.9,-0.5 zm-0.4,7.8 c0.8,0 1.4,-0.3000000000000003 1.9,-0.9 c0.4,-0.6000000000000006 0.7000000000000006,-1.4 0.7000000000000006,-2.5 c0,-2 -0.9,-3 -2.5,-3 a3,3 0 0 0 -1.7000000000000002,0.5 c-0.5,0.4 -1,0.8 -1.3,1.4 c0,1.6 0.3000000000000003,2.7 0.7000000000000006,3.4 c0.5,0.7000000000000006 1.2,1.1 2.2,1.1 zm15.2,-11.2 h-5.4 v4.3 l1.1,-0.5 l1.2,-0.1 c1.2,0 2,0.4 2.8,1.1 c0.6000000000000006,0.8 1,1.8 1,3.2 c0,0.9 -0.2,1.7000000000000002 -0.6000000000000006,2.4 a4,4 0 0 1 -1.6,1.6 a5.5,5.5 0 0 1 -6.4,-1 l1,-1 a4,4 0 0 0 3,1.2 c0.9,0 1.6,-0.3000000000000003 2,-0.9 c0.6000000000000006,-0.5 0.8,-1.3 0.8,-2.4 c0,-1 -0.2,-1.7000000000000002 -0.6000000000000006,-2.2 c-0.5,-0.5 -1,-0.7000000000000006 -1.8,-0.7000000000000006 l-1,0.1 l-1.2,0.4 h-1.3 v-6.9 h7.2 l-0.2,1.4 zm24.9,9 h-1.8 v3.3 h-1.6 V155.1543619632721 h-5.7 v-1.2 l4,-9.4 l1.4,0.6000000000000006 l-3.6,8.7 h4 v-4 h1.5 v4 h1.8 v1.3 zm6.8,-10.6 c0.8,0 1.5,0.2 2.2,0.5 c0.6000000000000006,0.3000000000000003 1.1,0.7000000000000006 1.4,1.2 c0.4,0.6000000000000006 0.6000000000000006,1.1 0.6000000000000006,1.7000000000000002 a3,3 0 0 1 -0.8,2.1 c-0.5,0.6000000000000006 -1.2,1 -1.9,1.1 c0.9,0.1 1.6,0.4 2.2,1 c0.6000000000000006,0.6000000000000006 0.9,1.4 0.9,2.4 a4,4 0 0 1 -2.3,3.6 c-0.7000000000000006,0.4 -1.5,0.6000000000000006 -2.5,0.6000000000000006 c-0.8,0 -1.5,-0.2 -2.3,-0.5 c-0.7000000000000006,-0.3000000000000003 -1.4,-0.8 -1.8,-1.4 l1,-0.9 a3.8,3.8 0 0 0 3.1,1.4 c1,0 1.7000000000000002,-0.3000000000000003 2.2,-0.8 c0.6000000000000006,-0.5 0.9,-1.1 0.9,-2 c0,-1.7000000000000002 -1,-2.6 -2.9,-2.6 h-1.1 l0.2,-1.3 h0.8 c0.7000000000000006,0 1.3,-0.2 1.8,-0.6000000000000006 c0.5,-0.5 0.8,-1 0.8,-1.8 a2,2 0 0 0 -0.8,-1.7000000000000002 c-0.4,-0.4 -1,-0.6000000000000006 -1.8,-0.6000000000000006 c-0.6000000000000006,0 -1,0 -1.5,0.3000000000000003 c-0.5,0.2 -1,0.5 -1.4,1 l-1,-1.1 c1.2,-1 2.5,-1.6 4,-1.6 zm11.9,0 c0.8,0 1.6,0.2 2.2,0.5 c0.6000000000000006,0.3000000000000003 1.1,0.8 1.4,1.4 c0.4,0.5 0.5,1.2 0.5,2 s-0.2,1.6 -0.6000000000000006,2.4 c-0.4,0.8 -1,1.7000000000000002 -1.8,2.6 c-0.9,1 -2.1,2.2 -3.7,3.6 h6.4 l-0.2,1.4 h-8.1 V157.1543619632721 l4,-4 l1.8,-2.5 a5,5 0 0 0 0.5,-2.2 c0,-0.8 -0.2,-1.4 -0.7000000000000006,-1.8 c-0.4,-0.5 -1,-0.7000000000000006 -1.8,-0.7000000000000006 c-0.6000000000000006,0 -1.2,0.1 -1.6,0.4 c-0.4,0.2 -0.9,0.5 -1.3,1 l-1.2,-0.8 c0.6000000000000006,-0.7000000000000006 1.2,-1.2 1.8,-1.5 c0.7000000000000006,-0.3000000000000003 1.5,-0.5 2.4,-0.5 zM356.05368995666504,157.1543619632721 v1.3 h-7.8 V157.1543619632721 h3.3 v-10.5 l-3.1,1.8 l-0.7000000000000006,-1.1 l4,-2.6 h1.5 V157.1543619632721 h2.8 z" fill="#EDCD6E" id="svg_10" class="" opacity="1" filter=""/>
    <path d="M117.35368995666505,95.1543619632721 v25.7 l-7.7,-12.6 l7.7,-13 z" stroke="#fff" stroke-width=".8" stroke-miterlimit="10" id="svg_11" class="" opacity="1" filter=""/>
    <path d="M429.753689956665,181.85436196327208 h-22.3 v39.1 h22.3 v-39.1 z" fill="#FF5F00" id="svg_18" class="" opacity="1" filter=""/>
    <path d="M408.953689956665,201.35436196327208 a24.4,24.4 0 0 1 9.7,-19.5 a25.7,25.7 0 0 0 -37.3,6.3 a24.5,24.5 0 0 0 10.4,35.6 a25.9,25.9 0 0 0 26.9,-2.8 a25,25 0 0 1 -9.7,-19.6 z" fill="#EB001B" id="svg_19" class="" opacity="1" filter=""/>
    <path d="M459.7536899566651,201.35436196327208 a24.5,24.5 0 0 1 -14.3,22.4 a26,26 0 0 1 -26.8,-2.8 a25,25 0 0 0 9.7,-19.6 a24.4,24.4 0 0 0 -9.7,-19.5 a25.7,25.7 0 0 1 37.2,6.3 c2.6,4 3.9,8.6 3.9,13.2 zM457.35368995666505,216.85436196327208 v-0.8 h0.3000000000000003 v-0.2 h-0.8 v0.2 h0.3000000000000003 v0.8 h0.2 zm1.6,0 v-1 h-0.2 l-0.3000000000000003,0.7000000000000006 l-0.3000000000000003,-0.7000000000000006 h-0.3000000000000003 v1 h0.2 v-0.8 l0.3000000000000003,0.7000000000000006 h0.2 l0.3000000000000003,-0.7000000000000006 v0.8 h0.1 z" fill="#F79E1B" id="svg_20" class="" opacity="1" filter=""/>
    <path d="M172.35368995666505,88.5543619632721 h-37.1 c-2,0 -3.7,1.6 -3.7,3.6 v31.7 c0,2 1.7000000000000002,3.6 3.7,3.6 h37.1 c2,0 3.6,-1.6 3.6,-3.6 V92.1543619632721 c0,-2 -1.6,-3.6 -3.6,-3.6 z" fill="url(#paint0_linear)" id="svg_21" class="" opacity="1" filter=""/>
    <path fill-rule="evenodd" clip-rule="evenodd" d="M142.35368995666505,88.5543619632721 v9.7 h1 v-9.7 h-1 zm17.7,25.7 c0,1.4 1.1,2.4 2.5,2.4 h13.4 v1 h-13.4 c-2,0 -3.5,-1.5 -3.5,-3.4 v-1.5 h-11.4 v-1 H159.05368995666504 V102.1543619632721 h-11.4 v-1 H159.05368995666504 v-0.1 c0,-1.8 1.4,-3.3 3.3,-3.4 v-9.2 h1 v9.2 H176.05368995666504 v1 h-13.4 c-1.4,0 -2.5,1 -2.5,2.4 v5.3 h16 v1 h-16 v6.8 zm-17.7,3.5 v9.4 h1 v-9.4 h-1 zm20,9.4 v-9.4 h1 v9.4 h-1 zm-15,-19.7 h-15.8 v-1 h15.8 v1 z" fill="url(#paint1_linear)" id="svg_22" class="" opacity="1" filter=""/>
  </g>
</svg>