<?xml version="1.0" encoding="utf-8"?>
<svg viewBox="0 0 1440 174" preserveAspectRatio="none" xmlns="http://www.w3.org/2000/svg">
  <path fill="#F5F5F5" d="M 1049 114 C 1244.5 114 1244.5 142 1440 142 L 1440 142 L 1440 0 L 1049 0 Z" stroke-width="0" transform="matrix(-1, 0, 0, -1, 2489, 142)"/>
  <path fill="#F5F5F5" d="M 390 142 C 720 142 720 104 1050 104 L 1050 104 L 1050 0 L 390 0 Z" stroke-width="0" transform="matrix(-1, 0, 0, -1, 1440, 142)"/>
  <path fill="#F5F5F5" d="M 0 122 C 195.5 122 195.5 142 391 142 L 391 142 L 391 18 L 0 18 Z" stroke-width="0" transform="matrix(-1, 0, 0, -1, 391, 160)"/>
</svg>