<?xml version="1.0" encoding="utf-8"?>
<svg viewBox="73.348 270.969 283.027 50.5" xmlns="http://www.w3.org/2000/svg">
  <g>
    <path d="M 148.6620029296875 278.8960021972656 Q 149.9160029296875 278.8960021972656 151.17000292968748 278.8770021972656 Q 152.4240029296875 278.85800219726565 153.7160029296875 278.85800219726565 L 149.8400029296875 300.8600021972656 Q 149.4600029296875 302.98800219726564 148.3580029296875 304.71700219726563 Q 147.2560029296875 306.4460021972656 145.5270029296875 307.6430021972656 Q 143.7980029296875 308.8400021972656 141.4990029296875 309.48600219726563 Q 139.2000029296875 310.13200219726565 136.4260029296875 310.13200219726565 Q 133.6140029296875 310.13200219726565 131.3910029296875 309.2390021972656 Q 129.1680029296875 308.34600219726565 127.6860029296875 306.7880021972656 Q 126.2040029296875 305.2300021972656 125.5960029296875 303.0640021972656 Q 124.9880029296875 300.8980021972656 125.4440029296875 298.3520021972656 Q 125.9000029296875 295.7300021972656 127.3250029296875 293.5640021972656 Q 128.7500029296875 291.3980021972656 130.8970029296875 289.8210021972656 Q 133.0440029296875 288.2440021972656 135.7990029296875 287.38900219726565 Q 138.5540029296875 286.53400219726564 141.7080029296875 286.53400219726564 Q 143.2660029296875 286.53400219726564 144.6150029296875 286.78100219726565 Q 145.9640029296875 287.0280021972656 147.1800029296875 287.37000219726565 Z M 146.2680029296875 292.53800219726566 Q 145.3180029296875 292.08200219726564 143.9880029296875 291.8350021972656 Q 142.65800292968748 291.5880021972656 140.4540029296875 291.5880021972656 Q 138.5540029296875 291.5880021972656 136.8630029296875 292.06300219726563 Q 135.1720029296875 292.53800219726566 133.8610029296875 293.4120021972656 Q 132.5500029296875 294.28600219726565 131.6760029296875 295.5210021972656 Q 130.8020029296875 296.7560021972656 130.5360029296875 298.3140021972656 Q 130.2700029296875 299.79600219726564 130.6310029296875 301.03100219726565 Q 130.9920029296875 302.2660021972656 131.8850029296875 303.17800219726564 Q 132.7780029296875 304.0900021972656 134.1460029296875 304.58400219726565 Q 135.5140029296875 305.0780021972656 137.2620029296875 305.0780021972656 Q 138.2880029296875 305.0780021972656 139.5040029296875 304.92600219726563 Q 140.7200029296875 304.77400219726565 141.8030029296875 304.3180021972656 Q 142.8860029296875 303.8620021972656 143.7220029296875 303.0260021972656 Q 144.5580029296875 302.19000219726564 144.7860029296875 300.8600021972656 Z M 161.860009765625 286.4960021972656 Q 164.292009765625 286.4960021972656 166.287009765625 287.4270021972656 Q 168.282009765625 288.35800219726565 169.612009765625 289.9920021972656 Q 170.942009765625 291.6260021972656 171.493009765625 293.7920021972656 Q 172.044009765625 295.9580021972656 171.62600976562499 298.39000219726563 Q 171.170009765625 300.82200219726565 169.859009765625 302.98800219726564 Q 168.548009765625 305.15400219726564 166.667009765625 306.76900219726565 Q 164.786009765625 308.3840021972656 162.449009765625 309.31500219726564 Q 160.112009765625 310.2460021972656 157.680009765625 310.2460021972656 Q 155.210009765625 310.2460021972656 153.215009765625 309.31500219726564 Q 151.220009765625 308.3840021972656 149.890009765625 306.76900219726565 Q 148.560009765625 305.15400219726564 147.990009765625 302.98800219726564 Q 147.420009765625 300.82200219726565 147.876009765625 298.39000219726563 Q 148.294009765625 295.9580021972656 149.624009765625 293.7920021972656 Q 150.954009765625 291.6260021972656 152.854009765625 289.9920021972656 Q 154.754009765625 288.35800219726565 157.072009765625 287.4270021972656 Q 159.390009765625 286.4960021972656 161.860009765625 286.4960021972656 Z M 158.554009765625 305.19200219726565 Q 159.960009765625 305.19200219726565 161.309009765625 304.6600021972656 Q 162.658009765625 304.12800219726563 163.741009765625 303.19700219726565 Q 164.824009765625 302.2660021972656 165.584009765625 301.03100219726565 Q 166.344009765625 299.79600219726564 166.610009765625 298.39000219726563 Q 166.838009765625 296.9840021972656 166.515009765625 295.7300021972656 Q 166.192009765625 294.47600219726564 165.432009765625 293.5640021972656 Q 164.672009765625 292.65200219726563 163.513009765625 292.12000219726565 Q 162.354009765625 291.5880021972656 160.948009765625 291.5880021972656 Q 159.542009765625 291.5880021972656 158.212009765625 292.12000219726565 Q 156.882009765625 292.65200219726563 155.799009765625 293.5640021972656 Q 154.716009765625 294.47600219726564 153.956009765625 295.7300021972656 Q 153.196009765625 296.9840021972656 152.968009765625 298.39000219726563 Q 152.702009765625 299.79600219726564 153.025009765625 301.03100219726565 Q 153.348009765625 302.2660021972656 154.108009765625 303.19700219726565 Q 154.868009765625 304.12800219726563 156.008009765625 304.6600021972656 Q 157.148009765625 305.19200219726565 158.554009765625 305.19200219726565 Z M 183.19042358398437 286.4960021972656 Q 185.62242358398439 286.4960021972656 187.61742358398436 287.4270021972656 Q 189.61242358398437 288.35800219726565 190.94242358398438 289.9920021972656 Q 192.27242358398436 291.6260021972656 192.82342358398438 293.7920021972656 Q 193.37442358398437 295.9580021972656 192.95642358398436 298.39000219726563 Q 192.50042358398437 300.82200219726565 191.18942358398436 302.98800219726564 Q 189.8784235839844 305.15400219726564 187.99742358398439 306.76900219726565 Q 186.11642358398439 308.3840021972656 183.77942358398437 309.31500219726564 Q 181.44242358398438 310.2460021972656 179.01042358398436 310.2460021972656 Q 176.54042358398436 310.2460021972656 174.5454235839844 309.31500219726564 Q 172.55042358398438 308.3840021972656 171.22042358398437 306.76900219726565 Q 169.8904235839844 305.15400219726564 169.32042358398436 302.98800219726564 Q 168.75042358398437 300.82200219726565 169.2064235839844 298.39000219726563 Q 169.62442358398437 295.9580021972656 170.95442358398438 293.7920021972656 Q 172.28442358398436 291.6260021972656 174.18442358398437 289.9920021972656 Q 176.08442358398437 288.35800219726565 178.4024235839844 287.4270021972656 Q 180.72042358398437 286.4960021972656 183.19042358398437 286.4960021972656 Z M 179.8844235839844 305.19200219726565 Q 181.29042358398436 305.19200219726565 182.63942358398438 304.6600021972656 Q 183.98842358398437 304.12800219726563 185.07142358398437 303.19700219726565 Q 186.15442358398437 302.2660021972656 186.9144235839844 301.03100219726565 Q 187.67442358398438 299.79600219726564 187.94042358398437 298.39000219726563 Q 188.16842358398438 296.9840021972656 187.84542358398437 295.7300021972656 Q 187.52242358398436 294.47600219726564 186.76242358398437 293.5640021972656 Q 186.00242358398438 292.65200219726563 184.84342358398436 292.12000219726565 Q 183.68442358398437 291.5880021972656 182.27842358398436 291.5880021972656 Q 180.87242358398439 291.5880021972656 179.54242358398437 292.12000219726565 Q 178.2124235839844 292.65200219726563 177.12942358398436 293.5640021972656 Q 176.04642358398436 294.47600219726564 175.28642358398437 295.7300021972656 Q 174.52642358398438 296.9840021972656 174.29842358398437 298.39000219726563 Q 174.03242358398438 299.79600219726564 174.35542358398436 301.03100219726565 Q 174.67842358398437 302.2660021972656 175.4384235839844 303.19700219726565 Q 176.19842358398438 304.12800219726563 177.33842358398437 304.6600021972656 Q 178.47842358398438 305.19200219726565 179.8844235839844 305.19200219726565 Z" transform="matrix(1, 0, 0, 1, 0, 0)" style="fill: rgb(255, 255, 255); paint-order: stroke; white-space: pre;"/>
    <path d="M 201.3582305908203 310.1109924316406 L 196.6136016845703 310.1109924316406 L 200.3772735595703 288.4498596191406 L 205.1219024658203 288.4498596191406 Z M 201.0579376220703 282.9044494628906 Q 201.0579376220703 281.8033752441406 201.7786407470703 281.0226135253906 Q 202.4993438720703 280.2418518066406 203.7205352783203 280.2018127441406 Q 204.8816680908203 280.1617736816406 205.6524200439453 280.9125061035156 Q 206.4231719970703 281.6632385253906 206.4231719970703 282.7442932128906 Q 206.4231719970703 283.8854064941406 205.6724395751953 284.6261291503906 Q 204.9217071533203 285.3668518066406 203.7605743408203 285.4068908691406 Q 202.6194610595703 285.4469299316406 201.8386993408203 284.7162170410156 Q 201.0579376220703 283.9855041503906 201.0579376220703 282.9044494628906 Z M 214.2078399658203 288.4298400878906 L 213.7273712158203 290.9723205566406 Q 216.5100860595703 287.9693908691406 220.1536407470703 288.0494689941406 Q 223.1966094970703 288.1095275878906 224.6580352783203 290.2215881347656 Q 226.1194610595703 292.3336486816406 225.7390899658203 296.1173400878906 L 223.3968048095703 310.1109924316406 L 218.6521759033203 310.1109924316406 L 221.0144805908203 296.0572814941406 Q 221.1145782470703 295.1964416503906 221.0345001220703 294.4557189941406 Q 220.7742462158203 292.0733947753906 218.1917266845703 292.0133361816406 Q 215.4890899658203 291.9732971191406 213.4470977783203 294.6759338378906 L 210.7444610595703 310.1109924316406 L 205.9998321533203 310.1109924316406 L 209.7434844970703 288.4498596191406 Z M 238.40443420410156 283.1847229003906 L 237.48353576660156 288.4498596191406 L 241.18714904785156 288.4498596191406 L 240.56654357910156 292.0533752441406 L 236.84291076660156 292.0533752441406 L 234.80091857910156 304.1852111816406 Q 234.74085998535156 304.6856994628906 234.78089904785156 305.0860900878906 Q 234.90101623535156 306.3873596191406 236.38246154785156 306.4474182128906 Q 237.12318420410156 306.4474182128906 238.06410217285156 306.2672424316406 L 237.74378967285156 310.0709533691406 Q 236.26234436035156 310.4913635253906 234.76087951660156 310.4913635253906 Q 232.27845764160156 310.4513244628906 231.04725646972656 308.7997131347656 Q 229.81605529785156 307.1481018066406 230.07630920410156 304.4254455566406 L 232.09828186035156 292.0533752441406 L 228.63490295410156 292.0533752441406 L 229.27552795410156 288.4498596191406 L 232.71888732910156 288.4498596191406 L 233.63978576660156 283.1847229003906 Z M 250.41217041015625 310.5113830566406 Q 247.58941650390625 310.4513244628906 245.51739501953125 309.0899963378906 Q 243.44537353515625 307.7286682128906 242.45440673828125 305.3663635253906 Q 241.46343994140625 303.0040588378906 241.70367431640625 300.1012268066406 L 241.76373291015625 299.2804260253906 Q 242.12408447265625 295.9772033691406 243.69561767578125 293.3446350097656 Q 245.26715087890625 290.7120666503906 247.60943603515625 289.3507385253906 Q 249.95172119140625 287.9894104003906 252.69439697265625 288.0494689941406 Q 256.75836181640625 288.1295471191406 258.79034423828125 291.0724182128906 Q 260.82232666015625 294.0152893066406 260.32183837890625 298.7398986816406 L 260.04156494140625 300.8219299316406 L 246.40826416015625 300.8219299316406 Q 246.22808837890625 303.4044494628906 247.44927978515625 304.9859924316406 Q 248.67047119140625 306.5675354003906 250.81256103515625 306.6075744628906 Q 253.87554931640625 306.7076721191406 256.45806884765625 303.9449768066406 L 258.86041259765625 306.4674377441406 Q 257.49908447265625 308.4093322753906 255.27691650390625 309.4803771972656 Q 253.05474853515625 310.5514221191406 250.41217041015625 310.5113830566406 Z M 252.43414306640625 291.9332580566406 Q 248.67047119140625 291.8131408691406 246.78863525390625 297.2584533691406 L 255.77740478515625 297.2784729003906 L 255.85748291015625 296.8580627441406 Q 255.99761962890625 295.9371643066406 255.87750244140625 295.0563049316406 Q 255.65728759765625 293.6349182128906 254.75640869140625 292.8141174316406 Q 253.85552978515625 291.9933166503906 252.43414306640625 291.9332580566406 Z M 275.7101135253906 292.8941955566406 Q 274.7892150878906 292.6940002441406 273.8482971191406 292.6940002441406 Q 270.7252502441406 292.6139221191406 268.8834533691406 295.2765197753906 L 266.2809143066406 310.1109924316406 L 261.5362854003906 310.1109924316406 L 265.2799377441406 288.4498596191406 L 269.7843322753906 288.4298400878906 L 269.3038635253906 290.8922424316406 Q 271.5260314941406 287.9493713378906 274.4288635253906 288.0094299316406 Q 275.0895080566406 288.0094299316406 276.2506408691406 288.3097229003906 Z M 283.9938659667969 303.8849182128906 L 290.8405456542969 288.4498596191406 L 295.9054870605469 288.4498596191406 L 285.2350769042969 310.1109924316406 L 281.1110534667969 310.1109924316406 L 277.1471862792969 288.4498596191406 L 281.9118347167969 288.4498596191406 Z M 299.7830810546875 310.1109924316406 L 295.0384521484375 310.1109924316406 L 298.8021240234375 288.4498596191406 L 303.5467529296875 288.4498596191406 Z M 299.4827880859375 282.9044494628906 Q 299.4827880859375 281.8033752441406 300.2034912109375 281.0226135253906 Q 300.9241943359375 280.2418518066406 302.1453857421875 280.2018127441406 Q 303.3065185546875 280.1617736816406 304.0772705078125 280.9125061035156 Q 304.8480224609375 281.6632385253906 304.8480224609375 282.7442932128906 Q 304.8480224609375 283.8854064941406 304.0972900390625 284.6261291503906 Q 303.3465576171875 285.3668518066406 302.1854248046875 285.4068908691406 Q 301.0443115234375 285.4469299316406 300.2635498046875 284.7162170410156 Q 299.4827880859375 283.9855041503906 299.4827880859375 282.9044494628906 Z M 314.2943115234375 310.5113830566406 Q 311.4715576171875 310.4513244628906 309.3995361328125 309.0899963378906 Q 307.3275146484375 307.7286682128906 306.3365478515625 305.3663635253906 Q 305.3455810546875 303.0040588378906 305.5858154296875 300.1012268066406 L 305.6458740234375 299.2804260253906 Q 306.0062255859375 295.9772033691406 307.5777587890625 293.3446350097656 Q 309.1492919921875 290.7120666503906 311.4915771484375 289.3507385253906 Q 313.8338623046875 287.9894104003906 316.5765380859375 288.0494689941406 Q 320.6405029296875 288.1295471191406 322.6724853515625 291.0724182128906 Q 324.7044677734375 294.0152893066406 324.2039794921875 298.7398986816406 L 323.9237060546875 300.8219299316406 L 310.2904052734375 300.8219299316406 Q 310.1102294921875 303.4044494628906 311.3314208984375 304.9859924316406 Q 312.5526123046875 306.5675354003906 314.6947021484375 306.6075744628906 Q 317.7576904296875 306.7076721191406 320.3402099609375 303.9449768066406 L 322.7425537109375 306.4674377441406 Q 321.3812255859375 308.4093322753906 319.1590576171875 309.4803771972656 Q 316.9368896484375 310.5514221191406 314.2943115234375 310.5113830566406 Z M 316.3162841796875 291.9332580566406 Q 312.5526123046875 291.8131408691406 310.6707763671875 297.2584533691406 L 319.6595458984375 297.2784729003906 L 319.7396240234375 296.8580627441406 Q 319.8797607421875 295.9371643066406 319.7596435546875 295.0563049316406 Q 319.5394287109375 293.6349182128906 318.6385498046875 292.8141174316406 Q 317.7376708984375 291.9933166503906 316.3162841796875 291.9332580566406 Z M 344.9775085449219 303.3644104003906 L 350.9233093261719 288.4498596191406 L 355.6879577636719 288.4498596191406 L 346.1986999511719 310.1109924316406 L 342.2948913574219 310.1109924316406 L 340.3930358886719 295.2965393066406 L 333.3861999511719 310.1109924316406 L 329.4623718261719 310.1109924316406 L 327.4804382324219 288.4498596191406 L 331.9648132324219 288.4498596191406 L 332.7856140136719 303.1441955566406 L 339.6322937011719 288.4498596191406 L 343.2157897949219 288.4498596191406 Z" transform="matrix(1, 0, 0, 1, 0, 0)" style="fill: rgb(255, 255, 255); paint-order: stroke; white-space: pre;"/>
    <path d="M 77.4943962097168 228.8454132080078 L 83.4401969909668 213.9308624267578 L 88.2048454284668 213.9308624267578 L 78.7155876159668 235.5919952392578 L 74.8117790222168 235.5919952392578 L 72.9099235534668 220.7775421142578 L 65.9030876159668 235.5919952392578 L 61.9792594909668 235.5919952392578 L 59.9973258972168 213.9308624267578 L 64.4817008972168 213.9308624267578 L 65.3025016784668 228.6251983642578 L 72.1491813659668 213.9308624267578 L 75.7326774597168 213.9308624267578 Z M 96.18376922607422 235.9923858642578 Q 93.36101531982422 235.9323272705078 91.28899383544922 234.5709991455078 Q 89.21697235107422 233.2096710205078 88.22600555419922 230.8473663330078 Q 87.23503875732422 228.4850616455078 87.47527313232422 225.5822296142578 L 87.53533172607422 224.7614288330078 Q 87.89568328857422 221.4582061767578 89.46721649169922 218.8256378173828 Q 91.03874969482422 216.1930694580078 93.38103485107422 214.8317413330078 Q 95.72332000732422 213.4704132080078 98.46599578857422 213.5304718017578 Q 102.52996063232422 213.6105499267578 104.56194305419922 216.5534210205078 Q 106.59392547607422 219.4962921142578 106.09343719482422 224.2209014892578 L 105.81316375732422 226.3029327392578 L 92.17986297607422 226.3029327392578 Q 91.99968719482422 228.8854522705078 93.22087860107422 230.4669952392578 Q 94.44207000732422 232.0485382080078 96.58415985107422 232.0885772705078 Q 99.64714813232422 232.1886749267578 102.22966766357422 229.4259796142578 L 104.63201141357422 231.9484405517578 Q 103.27068328857422 233.8903350830078 101.04851531982422 234.9613800048828 Q 98.82634735107422 236.0324249267578 96.18376922607422 235.9923858642578 Z M 98.20574188232422 217.4142608642578 Q 94.44207000732422 217.2941436767578 92.56023406982422 222.7394561767578 L 101.54900360107422 222.7594757080078 L 101.62908172607422 222.3390655517578 Q 101.76921844482422 221.4181671142578 101.64910125732422 220.5373077392578 Q 101.42888641357422 219.1159210205078 100.52800750732422 218.2951202392578 Q 99.62712860107422 217.4743194580078 98.20574188232422 217.4142608642578 Z" transform="matrix(1, 0, 0, 1, 15.73897933959961, 73.34275817871094)" style="fill: rgb(255, 255, 255); paint-order: stroke; white-space: pre;"/>
    <path transform="matrix(1, 0, 0, 1, 15.73897933959961, 73.34275817871094)" style="fill: rgb(255, 255, 255); paint-order: stroke; white-space: pre;"/>
  </g>
</svg>